<svg xmlns="http://www.w3.org/2000/svg" width="645.27759" height="750.3254" viewBox="0 0 645.27759 750.3254" xmlns:xlink="http://www.w3.org/1999/xlink" role="img" artist="Katerina Limpitsouni" source="https://undraw.co/"><path d="M38.60956,647.76203s67.09732,48.36605,87.06475,48.36605l14.26245-5.70498,16.38946.96879,3.8114,11.63463,25.439,4.51153-8.55747,8.55747,28.52491,7.13123,17.11494-11.40996,5.70498,7.13123,19.96743-7.13123,4.77722,11.40996,23.74768-8.55747,15.6887,5.70498s2.85249,17.11494,17.11494,18.54119c14.26245,1.42625,34.22989,11.40996,34.22989,11.40996l44.5197-19.04336,5.39888-9.48155,15.6887,4.27874,41.36111-22.81993s-.91849.12629-11.86921-4.21559c-10.95072-4.34188-12.37696-10.04686-12.37696-10.04686l-7.76438,2.39503s-12.22717-3.38875-3.65764-17.86747c8.56953-14.47872,1.82882-12.46567,1.82882-12.46567l-13.22673,3.69193-7.13123-11.40996s-14.26245,4.27874-17.11494,5.70498,4.27874-7.13123,4.27874-7.13123l-5.70498-2.85249,1.42625-7.13123s-4.27874-2.85249,1.42625-8.55747-4.27874-11.40996-4.27874-11.40996c0,0-26.10381,8.40543-16.61752-5.781,9.48629-14.18643,1.21055-19.88661,1.21055-19.88661l-63.30146-19.97224-6.86629,9.98372s-22.58637-6.12138-15.57192,12.62801c0,0-15.54957,1.27788-9.97254,10.01364,0,0-18.66914-2.35456-14.39041,8.89558l-15.11169-4.20085s-11.54049-3.44676-2.49313-4.69472-3.32418-4.81358-3.32418-4.81358c0,0,4.04706-15.6887-7.4794-11.0534-11.52646,4.6353-21.26824,11.0534-21.26824,11.0534l-162.89769,43.62677Z" fill="#b3b3b3"/><path d="M42.8883,642.05704s67.09732,48.36605,87.06475,48.36605l14.26245-5.70498,16.38946.96879,3.8114,11.63463,25.439,4.51153-8.55747,8.55747,28.52491,7.13123,17.11494-11.40996,5.70498,7.13123,19.96743-7.13123,4.77722,11.40996,23.74768-8.55747,15.6887,5.70498s2.85249,17.11494,17.11494,18.54119,34.22989,11.40996,34.22989,11.40996l44.5197-19.04336,5.39888-9.48155,15.6887,4.27874,41.36111-22.81993s-.91849.12629-11.86921-4.21559-12.37696-10.04686-12.37696-10.04686l-7.76438,2.39503s-12.22717-3.38875-3.65764-17.86747c8.56953-14.47872,1.82882-12.46567,1.82882-12.46567l-13.22673,3.69193-7.13123-11.40996s-14.26245,4.27874-17.11494,5.70498c-2.85249,1.42625,4.27874-7.13123,4.27874-7.13123l-5.70498-2.85249,1.42625-7.13123s-4.27874-2.85249,1.42625-8.55747-4.27874-11.40996-4.27874-11.40996c0,0-26.10381,8.40543-16.61752-5.781,9.48629-14.18643,1.21055-19.88661,1.21055-19.88661l-63.30146-19.97224-6.86629,9.98372s-22.58637-6.12138-15.57192,12.62801c0,0-15.54957,1.27788-9.97254,10.01364,0,0-18.66914-2.35456-14.39041,8.89558l-15.11169-4.20085s-11.54049-3.44676-2.49313-4.69472c9.04735-1.24796-3.32418-4.81358-3.32418-4.81358,0,0,4.04706-15.6887-7.4794-11.0534-11.52646,4.6353-21.26824,11.0534-21.26824,11.0534l-162.89769,43.62677Z" fill="#d6d6e3"/><path d="M522.17051,480.76503s54.19732-12.83621,48.49234-65.60728l9.98372,2.85249v-19.89514s19.85146,32.73135,19.90945,45.56755c.05799,12.83621,8.61546,105.54215-94.07421,88.42721l15.6887-51.34483Z" fill="#e16432"/><path d="M229.79022,38.62898l-13.54933.71312h-21.56462s-15.39859-3.56561-20.8066-.71312l7.4282,4.27874s-12.83621,1.42625-17.11494,7.13123h11.9361s-16.21484,4.27874-19.06733,15.6887c-2.85249,11.40996-31.3774,37.08238-31.3774,37.08238,0,0-58.47606,47.0661,12.83621,111.24714,0,0,8.55747,27.09866,5.70498,31.3774s35.65613,9.98372,39.93487-19.96743c4.27874-29.95115,12.83621-92.70595,12.83621-99.83717s18.54119-51.34483,18.54119-51.34483" fill="#e16432"/><path d="M403.79215,38.62898l13.54933.71312h21.56462s15.39859-3.56561,20.8066-.71312l-7.4282,4.27874s12.83621,1.42625,17.11494,7.13123h-11.9361s16.21484,4.27874,19.06733,15.6887c2.85249,11.40996,31.3774,37.08238,31.3774,37.08238,0,0,58.47606,47.0661-12.83621,111.24714,0,0-8.55747,27.09866-5.70498,31.3774,2.85249,4.27874-35.65613,9.98372-39.93487-19.96743-4.27874-29.95115-12.83621-92.70595-12.83621-99.83717s-18.54119-51.34483-18.54119-51.34483" fill="#e16432"/><path d="M518.60767,531.39523c-2.85249,14.26245-15.6887,24.24617-15.6887,24.24617-5.70498,35.65613-29.95115,19.96743-29.95115,19.96743-1.42625,5.70498-28.52491,2.85249-28.52491,2.85249l-4.27874-5.63395v17.04391c0,12.83621-17.11494,8.55747-17.11494,8.55747-4.27874,12.83621-30.36482,5.70498-30.36482,5.70498-10.38346,8.55747-29.53748,0-29.53748,0-25.67242-1.42625-28.52491-22.81993-28.52491-22.81993l4.27874-37.08238-25.65849.54181c-28.52491,24.77405-57.77686,2.55303-57.77686,2.55303,0,0-4.99186,25.43007-7.84435,38.26627-2.85249,12.83621-41.76085,9.24204-41.76085,9.24204-8.95582,9.24204-27.76861-1.59756-27.76861-1.59756-15.34607,6.20431-24.60273-7.64448-24.60273-7.64448-21.39368-19.96743,18.01331-51.65891,18.01331-51.65891v-73.96489c-16.21658-65.73612,6.94598-186.9809,6.94598-186.9809,1.91095-5.61932,5.41945-9.76992,9.39873-12.80766,9.31377-7.17371,21.20844-8.32905,21.20844-8.32905,0,0,194.02647-17.11494,222.55138-14.26245,5.3916.54181,9.71351,4.07887,13.16491,9.46977,14.87529,23.14793,13.93375,80.38369,13.93375,80.38369,28.52491,12.83621,35.65613,75.591,35.65613,75.591,65.60728,22.81993,27.09866,114.09963,24.24617,128.36208Z" fill="#e16432"/><path d="M408.78401,32.21088s-101.26342-77.01725-192.54312,7.13123c0,0-63.46792,157.60011-39.22175,194.68249,24.24617,37.08238,95.88277,68.57625,95.88277,68.57625,0,0,46.15995,10.10019,89.23822,0s90.14436-78.55996,90.14436-78.55996c0,0,1.42625-179.70691-43.50048-191.83Z" fill="#e16432"/><path d="M347.6156,90.54595c6.37111,13.69763,18.95955,24.14036,33.55001,27.99847,2.66461.7046,3.80137-3.42149,1.13746-4.1259-13.61174-3.59931-25.06129-13.27942-30.9929-26.03214-1.1602-2.49439-4.84969-.32391-3.69456,2.15956h0Z" fill="#090814"/><path d="M271.89347,90.04916c-2.90934,7.46706-7.57591,14.18359-13.46933,19.60319-2.88193,2.65023-6.07615,5.02401-9.5208,6.89537-3.64826,1.98197-8.31737,3.60707-12.24223,1.468-2.41866-1.31818-4.58074,2.37501-2.15956,3.69456,8.84537,4.82077,19.11652-2.2275,25.69916-7.91958,7.0613-6.10599,12.43602-13.92224,15.81867-22.60408,1.00016-2.567-3.13551-3.67936-4.1259-1.13746h0Z" fill="#090814"/><circle cx="382.39847" cy="155.5811" r="25.67242" fill="#fff"/><circle cx="379.54598" cy="154.15485" r="19.96743" fill="#090814"/><circle cx="384.53784" cy="143.45801" r="4.27874" fill="#fff"/><circle cx="255.46264" cy="157.00734" r="25.67242" fill="#fff"/><circle cx="252.61015" cy="155.5811" r="19.96743" fill="#090814"/><circle cx="257.60201" cy="144.88426" r="4.27874" fill="#fff"/><path d="M313.22557,251.85266s-45.63985-14.26245-34.22989-41.36111c11.40996-27.09866,47.0661-17.11494,47.0661-17.11494,0,0,30.66427,4.99186,21.55496,28.33959-6.57938,16.58714-17.27622,24.43149-34.39117,30.13647Z" fill="#090814"/><path d="M255.62419,295.53757l-.32453-2.83299c.13789-.01671,13.91564-1.76888,26.20169-15.41988,11.10076-12.3334,25.60556-13.57579,30.30771-13.63429l-.00975-11.79577,2.85249-.00279.01254,14.76247-1.51539-.09193c-.1741-.01114-17.32944-.88165-29.52774,12.67046-13.04792,14.49784-27.39394,16.27647-27.99703,16.34472Z" fill="#090814"/><path d="M379.12255,297.05853c-1.03626-.32313-25.45792-8.02402-31.08351-19.005-4.13945-8.07834-26.58332-11.06176-34.88312-11.53114l.16157-2.84692c1.28418.07243,31.53479,1.90398,37.25927,13.07717,5.08657,9.92661,29.15028,17.50633,29.39263,17.58154l-.84683,2.72435Z" fill="#090814"/><path d="M256.7468,547.9426l-2.56836-1.24239c27.85914-57.57769.31199-109.76518.03064-110.2847l2.50707-1.35939c.28971.53345,28.54441,53.95636.03064,112.88648Z" fill="#090814"/><path d="M337.47451,544.3171c-2.12683-36.14919,12.01166-100.29959,12.15373-100.94307l2.78564.61841c-.14207.6407-14.1956,64.40528-12.09244,100.15752l-2.84692.16714Z" fill="#090814"/><path d="M438.21005,574.17911l-11.40996-19.96743c-11.63142-20.35603,17.23751-86.88397,18.47294-89.70582l2.61293,1.14211c-.07382.17132-7.53236,17.28626-13.50058,36.59907-7.80535,25.26014-9.57144,42.74-5.10886,50.54953l11.40996,19.96743-2.47643,1.4151Z" fill="#090814"/><path d="M474.36342,575.89088l-2.79678-.55991c3.46672-17.3364,1.35243-30.73392,1.33014-30.86623l2.81488-.46242c.09332.56409,2.22712,14.01175-1.34825,31.88856Z" fill="#090814"/><path d="M443.06124,578.82694c-3.62272-13.76382,1.90677-34.11289,2.14355-34.97226l2.74942.75769c-.05571.20335-5.56013,20.47303-2.13519,33.48752l-2.75778.72705Z" fill="#090814"/><path d="M364.53139,604.46593l-2.77449-.6602c3.47369-14.59255,2.11708-37.15063,2.10315-37.37626l2.84692-.17828c.0585.94015,1.39839,23.20434-2.17558,38.21474Z" fill="#090814"/><path d="M394.09116,604.39768l-2.80513-.5237c1.68531-9.0171,1.10311-32.97774,1.09615-33.2187l2.85249-.07243c.02507.99586.59613,24.50384-1.1435,33.81483Z" fill="#090814"/><path d="M424.46991,598.51442l-2.84692-.16714c.68805-11.7136-3.46533-24.2977-3.50711-24.42306l2.70485-.90533c.17967.53484,4.37066,13.23873,3.64918,25.49553Z" fill="#090814"/><path d="M204.44232,594.95438c-1.13236-13.14681,9.90154-33.43459,10.37092-34.29256l2.5015,1.37193c-.11143.20335-11.08961,20.38946-10.03107,32.6755l-2.84135.24514Z" fill="#090814"/><path d="M176.67649,593.44596c-1.83713-11.95595,8.98089-31.93592,9.44191-32.78136l2.50429,1.36775c-.10864.19778-10.81662,19.97718-9.12713,30.98184l-2.81906.43177Z" fill="#090814"/><path d="M157.76203,591.87068c-3.22298-1.58503-3.18677-7.11591.11282-17.40465,2.22851-6.94877,5.21053-13.63429,5.23978-13.69975l2.60457,1.1644c-5.32196,11.89188-9.38202,26.05962-6.69806,27.38001l-1.25911,2.56Z" fill="#090814"/><path d="M52.95032,588.80312s12.89599,13.19277,32.82627,12.47965c0,0-8.59462,17.82807-44.25075,22.1068,0,0-15.6887-8.55747-25.67242-8.55747s-17.08646-12.83621-15.67446-13.54933,21.37944,2.13937,21.37944,2.13937l31.39191-14.61901Z" fill="#b3b3b3"/><path d="M52.95032,585.95062s12.89599,13.19277,32.82627,12.47965c0,0-8.59462,17.82807-44.25075,22.1068,0,0-15.6887-8.55747-25.67242-8.55747s-17.08646-12.83621-15.67446-13.54933,21.37944,2.13937,21.37944,2.13937l31.39191-14.61901Z" fill="#d6d6e3"/><polygon points="125.67431 636.22577 210.92523 607.93857 303.95498 640.50451 218.38026 676.16064 125.67431 636.22577" fill="#b3b3b3"/><polygon points="289.59036 603.24385 294.57663 598.43027 358.15157 620.53707 355.29981 624.81581 289.59036 603.24385" fill="#b3b3b3"/><polygon points="261.80151 611.62304 268.14037 607.93857 373.5259 642.04961 373.5259 645.79675 261.80151 611.62304" fill="#b3b3b3"/><polygon points="311.08621 649.06198 315.76828 645.79675 399.51342 673.30815 393.91341 677.79198 311.08621 649.06198" fill="#b3b3b3"/><polygon points="286.68171 661.79436 289.59036 657.61945 373.5259 687.34899 369.56226 691.84934 286.68171 661.79436" fill="#b3b3b3"/><polygon points="266.8726 670.45566 268.14037 666.57287 351.02108 697.32153 346.74234 698.98057 266.8726 670.45566" fill="#b3b3b3"/><polygon points="255.46264 681.11616 261.80151 676.16064 303.95498 694.8284 301.64051 698.98057 255.46264 681.11616" fill="#b3b3b3"/><polygon points="109.98562 647.63574 113.82436 645.79675 189.44945 674.7344 185.29422 676.16064 109.98562 647.63574" fill="#b3b3b3"/><polygon points="92.87067 651.91447 101.42814 647.63574 142.78926 669.02941 138.51052 671.88191 92.87067 651.91447" fill="#b3b3b3"/><path d="M429.72472,609.84023l2.59234,17.82807-4.91189,12.1988,12.88631,5.81731,10.56677,14.12776v7.68717l26.38554,6.4406s14.97558,20.76189,24.95929,17.9094c9.98372-2.85249,88.34906-59.2767,88.34906-59.2767l-145.01734-28.43739s-16.97618-3.56561-15.81008,5.70498Z" fill="#b3b3b3"/><path d="M425.44598,604.13525l2.59234,17.82807-4.91189,12.1988,12.88631,5.81731,10.56677,14.12776v7.68717l26.38554,6.4406s14.97558,20.76189,24.95929,17.9094,88.34906-59.2767,88.34906-59.2767l-145.01734-28.43739s-16.97618-3.56561-15.81008,5.70498Z" fill="#d6d6e3"/><polygon points="438.34741 626.86766 443.26778 621.69644 512.3104 642.04961 509.81727 645.79675 438.34741 626.86766" fill="#b3b3b3"/><polygon points="455.13698 648.28988 457.04592 642.08487 490.79312 654.76696 489.04115 660.97869 455.13698 648.28988" fill="#b3b3b3"/><path d="M597.8998,561.74888s-14.62466,20.27957-37.33262,10.29586c0,0-8.28772,5.70498-11.21911,7.13123s-22.02269,2.13937-22.02269,2.13937l27.00896,9.62716,16.32852,9.62716,38.50862-5.70498s8.55747-7.13123,17.11494-7.13123,16.13868-15.6887,16.13868-15.6887c0,0-24.57134-1.42625-25.34687-4.99186-.77553-3.56561-11.90892,4.36758-19.17843-5.304Z" fill="#b3b3b3"/><path d="M594.64002,688.4817c1.69525,9.07262,38.22807-8.10192,38.22807-8.10192l-15.37433-8.10192-6.89603-1.82219h-10.14039s-8.5571-7.33888-17.03642-2.95632c0,0,9.52385,11.90973,11.21911,20.98236Z" fill="#b3b3b3"/><path d="M600.75229,556.04389s-14.62466,20.27957-37.33262,10.29586c0,0-8.28772,5.70498-11.21911,7.13123s-22.02269,2.13937-22.02269,2.13937l27.00896,9.62716,16.32852,9.62716,38.50862-5.70498s8.55747-7.13123,17.11494-7.13123,16.13868-15.6887,16.13868-15.6887c0,0-24.57134-1.42625-25.34687-4.99186-.77553-3.56561-11.90892,4.36758-19.17843-5.304Z" fill="#d6d6e3"/><path d="M597.49251,682.77672c1.69525,9.07262,38.22807-8.10192,38.22807-8.10192l-15.37433-8.10192-6.89603-1.82219h-10.14039s-8.5571-7.33888-17.03642-2.95632c0,0,9.52385,11.90973,11.21911,20.98236Z" fill="#d6d6e3"/><path d="M129.47112,637.09408s64.29394-7.09772,76.00402-2.47918l4.10766,36.98882-80.11167-34.50964Z" fill="#fff"/><ellipse cx="235.72639" cy="638.52032" rx="11.40996" ry="4.99186" fill="#fff"/></svg>