<svg width="320" height="121.9569369104442" viewBox="0 0 320 121.9569369104442" class="css-1j8o68f">
  <defs id="SvgjsDefs2434"></defs>
  <g id="SvgjsG2435" featurekey="symbolFeature-0" transform="matrix(1.3629518589081953,0,0,1.3629518589081953,-18.146122857831536,-7.169121890563302)" fill="#5782bb">
    <switch xmlns="http://www.w3.org/2000/svg">
      <g xmlns:i="http://ns.adobe.com/AdobeIllustrator/10.0/" i:extraneous="self">
        <g>
          <g>
            <path fill="#5782bb" d="M47.404,94.74c-4.848-0.107-9.087-1.465-11.646-3.726c-1.201-1.057-1.854-2.359-1.941-3.871      c-0.008-0.042-0.012-0.086-0.012-0.13c-0.005-0.136-0.001-0.176,0.003-0.213v-4.136c-0.543,0.192-1.76,0.604-3.095,0.934      c-1.418,0.275-2.644,0.404-3.786,0.404c-4.877-0.12-9.117-1.467-11.652-3.694c-1.205-1.055-1.858-2.359-1.94-3.876      c-0.007-0.039-0.01-0.079-0.01-0.12l-0.003-0.132l0.003-51.954c-0.006-0.05-0.011-0.104-0.011-0.131      c-0.011-1.294,0.547-2.616,1.491-3.53c0.708-0.702,1.569-1.246,2.703-1.703L48.422,5.478c0.887-0.39,1.925-0.25,2.702,0.366      c0.744,0.572,1.192,1.525,1.192,2.545v5.25c0,0.414-0.336,0.75-0.75,0.75s-0.75-0.336-0.75-0.75v-5.25      c0-0.549-0.235-1.071-0.614-1.362c-0.352-0.278-0.801-0.341-1.181-0.174L18.087,20.247c-0.96,0.387-1.663,0.827-2.231,1.391      c-0.513,0.496-1.05,1.395-1.041,2.453l0.011,52.027c-0.003,0.021-0.001,0.047,0,0.109c0.002,0.019,0.004,0.037,0.004,0.057      c0.045,1.144,0.515,2.092,1.436,2.897c2.276,2,6.169,3.211,10.682,3.322c1.027,0,2.16-0.12,3.445-0.368      c1.643-0.408,3.175-0.977,3.19-0.982c0.074-0.027,0.15-0.043,0.227-0.046l-0.003-46.139c-0.005-0.05-0.01-0.104-0.01-0.129      c-0.014-1.287,0.543-2.608,1.487-3.526c0.708-0.703,1.572-1.246,2.715-1.705l26.671-11.536v-3.912      c-0.041-0.483-0.252-0.937-0.576-1.186c-0.355-0.279-0.792-0.34-1.174-0.172L31.981,26.198      c-1.395,0.597-3.188,0.926-5.056,0.926c-0.014,0-0.028,0-0.042,0c-2.358,0-4.936-0.517-6.903-1.386      c-0.603-0.253-1.191-0.577-1.646-0.907c-0.335-0.243-0.41-0.712-0.166-1.047c0.242-0.334,0.712-0.41,1.047-0.167      c0.211,0.153,0.668,0.454,1.358,0.744c1.781,0.787,4.176,1.27,6.35,1.263c1.67,0,3.255-0.285,4.464-0.804l30.93-13.392      c0.879-0.39,1.915-0.253,2.695,0.361c0.654,0.501,1.077,1.346,1.154,2.311l0.001,3.322l2.769-1.197      c0.871-0.386,1.904-0.251,2.688,0.355c0.744,0.574,1.188,1.528,1.188,2.551v5.254c0,0.414-0.336,0.75-0.75,0.75      s-0.75-0.336-0.75-0.75v-5.254c0-0.553-0.232-1.076-0.605-1.364c-0.354-0.274-0.791-0.336-1.17-0.168l-3.53,1.527      c-0.149,0.19-0.39,0.311-0.653,0.282L38.575,30.992c-0.968,0.389-1.675,0.829-2.241,1.391c-0.512,0.497-1.049,1.397-1.038,2.448      l0.01,52.031c0,0.012-0.001,0.029-0.002,0.047c0.004,0.024,0.006,0.049,0.007,0.075c0.047,1.145,0.519,2.095,1.439,2.905      c2.266,2.002,6.254,3.254,10.671,3.352c2.179,0,4.181-0.376,5.936-1.117l30.93-13.404c0.537-0.216,0.899-0.835,0.899-1.513      V25.087c0-0.553-0.234-1.079-0.613-1.373c-0.354-0.273-0.782-0.335-1.175-0.165l-30.93,13.394      c-1.393,0.605-3.141,0.926-5.054,0.926c-2.369,0.009-4.972-0.513-6.944-1.383c-0.764-0.326-1.315-0.67-1.642-0.902      c-0.338-0.239-0.418-0.708-0.179-1.045c0.238-0.338,0.706-0.418,1.046-0.178c0.377,0.267,0.864,0.533,1.371,0.75      c1.767,0.779,4.184,1.259,6.323,1.259c0.008,0,0.016,0,0.023,0c1.686,0,3.269-0.285,4.458-0.802l30.93-13.394      c0.893-0.387,1.898-0.255,2.69,0.355c0.749,0.583,1.194,1.538,1.194,2.559v52.119c0,1.295-0.732,2.459-1.822,2.897      L53.946,93.502C52,94.324,49.801,94.74,47.404,94.74z"></path>
          </g>
        </g>
      </g>
    </switch>
  </g>
  <g id="SvgjsG2436" featurekey="nameFeature-0" transform="matrix(1.6260163610204905,0,0,1.6260163610204905,117.52845361157262,19.504063583253913)" fill="#415375">
    <path d="M15.56 10.760000000000002 c4.2132 0 7.6068 1.4 10.18 4.2 s3.86 6.4268 3.86 10.88 c0 4.3468 -1.2933 7.9068 -3.88 10.68 s-5.9732 4.16 -10.16 4.16 c-4.2132 0 -7.6068 -1.3867 -10.18 -4.16 s-3.86 -6.3332 -3.86 -10.68 c0 -4.4268 1.2933 -8.0468 3.88 -10.86 s5.9732 -4.22 10.16 -4.22 z M7.8 25.84 c0 2.88 0.67996 5.1932 2.04 6.94 s3.2667 2.62 5.72 2.62 c2.4 0 4.2932 -0.86 5.68 -2.58 s2.08 -4.0468 2.08 -6.98 c0 -3.0667 -0.68668 -5.4668 -2.06 -7.2 s-3.2866 -2.6 -5.74 -2.6 c-2.4 0 -4.2868 0.86668 -5.66 2.6 s-2.06 4.1332 -2.06 7.2 z M38.96 11.440000000000001 l0.000039062 10.4 l0.08 0 c0.61332 -0.93332 1.4866 -1.68 2.62 -2.24 s2.4333 -0.84 3.9 -0.84 c2.5333 0 4.5932 1.0133 6.18 3.04 s2.38 4.64 2.38 7.84 c0 3.2267 -0.78668 5.8532 -2.36 7.88 s-3.6533 3.04 -6.24 3.04 c-3.36 0 -5.6132 -1.0667 -6.76 -3.2 l-0.08 0 l0 2.64 l-5.4 0 l0 -28.56 l5.68 0 z M38.76 29.68 c0 2 0.43996 3.6 1.32 4.8 s2.0533 1.8 3.52 1.8 c1.44 0 2.6067 -0.58668 3.5 -1.76 s1.34 -2.7866 1.34 -4.84 c0 -2.0267 -0.43332 -3.64 -1.3 -4.84 s-2.06 -1.8 -3.58 -1.8 c-1.4933 0 -2.6666 0.61332 -3.52 1.84 s-1.28 2.8267 -1.28 4.8 z M67.76 18.76 c3.3067 0 5.92 1.0067 7.84 3.02 s2.88 4.6468 2.88 7.9 c0 3.28 -0.98 5.9132 -2.94 7.9 s-4.5532 2.98 -7.78 2.98 c-3.28 0 -5.88 -1.0067 -7.8 -3.02 s-2.88 -4.6332 -2.88 -7.86 c0 -3.3333 0.98 -5.9868 2.94 -7.96 s4.54 -2.96 7.74 -2.96 z M62.760000000000005 29.68 c0 2.1067 0.42668 3.7333 1.28 4.88 s2.0933 1.72 3.72 1.72 c1.68 0 2.94 -0.58668 3.78 -1.76 s1.26 -2.7866 1.26 -4.84 c0 -2.1333 -0.43332 -3.7733 -1.3 -4.92 s-2.1267 -1.72 -3.78 -1.72 c-1.6 0 -2.8267 0.57332 -3.68 1.72 s-1.28 2.7867 -1.28 4.92 z M88.36 11.440000000000001 l0 15.32 l7.16 -7.44 l6.72 0 l-7.8 7.6 l8.68 13.08 l-6.88 0 l-5.68 -9.24 l-2.2 2.12 l0 7.12 l-5.68 0 l0 -28.56 l5.68 0 z M110.80000000000001 19.32 l0 11.72 c0 1.6 0.25332 2.84 0.76 3.72 s1.4667 1.32 2.88 1.32 c1.5733 0 2.7 -0.46668 3.38 -1.4 s1.02 -2.4266 1.02 -4.48 l0 -10.88 l5.68 0 l0 20.68 l-5.4 0 l0 -2.88 l-0.12 0 c-1.4133 2.2933 -3.5333 3.44 -6.36 3.44 c-2.6933 0 -4.62 -0.68668 -5.78 -2.06 s-1.74 -3.4866 -1.74 -6.34 l0 -12.84 l5.68 0 z"></path>
  </g>
</svg>